<svg xmlns="http://www.w3.org/2000/svg" width="150" height="23.023" viewBox="0 0 150 23.023"><path fill="#FFF" d="M25.712 14.146c0 4.882-3.963 8.86-8.838 8.86-4.874 0-8.838-3.97-8.838-8.86 0-3.418 1.95-6.39 4.787-7.86.478.75.765 1.633.765 2.574 0 .044-.007.088-.007.132-1.698 1.088-2.823 2.993-2.823 5.162 0 3.382 2.743 6.132 6.117 6.132 3.375 0 6.118-2.75 6.118-6.132 0-2.625-1.662-4.867-3.985-5.735-.044-1.038-.243-2.037-.574-2.97 4.132.726 7.28 4.343 7.28 8.696z"/><path fill="#057ACD" d="M17.676 8.86c0 1.75-.508 3.375-1.47 4.875-.994 1.544-2.383 2.5-3.317 2.985-.48-.743-.766-1.625-.766-2.574 0-.044.015-.088.015-.132.507-.33 2.815-1.95 2.815-5.154 0-3.117-2.33-5.69-5.337-6.073-.258-.03-.515-.06-.78-.06-3.375 0-6.118 2.75-6.118 6.133 0 2.632 1.66 4.867 3.985 5.742.044 1.037.243 2.037.58 2.97C3.156 16.838 0 13.213 0 8.86 0 3.97 3.963 0 8.837 0c.383 0 .758.03 1.126.08 4.338.552 7.713 4.273 7.713 8.78z"/><path fill="none" d="M41.658 4.43h108.227v15.194H41.658z"/><path fill="#FFF" d="M52.93 16.582c-.643.495-2.054 1.338-4.033 1.338-3.885 0-6.597-2.877-6.597-6.652s2.822-6.652 6.58-6.652c1.813 0 3.133.678 3.884 1.246l-.605 1.796c-.55-.42-1.724-1.136-3.226-1.136-2.676 0-4.526 2.09-4.526 4.747s1.796 4.746 4.544 4.746c1.668 0 2.86-.825 3.372-1.21l.605 1.776z"/><path fill="#FFF" d="M55.75 14.218c.348.916 1.1 1.814 2.51 1.814 1.155 0 1.925-.64 1.925-1.723 0-2.713-5.772-2.108-5.772-6.23 0-2 1.484-3.465 3.85-3.465 2.436 0 3.48 1.723 3.792 2.62l-1.686.752c-.294-.623-.88-1.503-2.145-1.503-1.136 0-1.778.697-1.778 1.576 0 2.53 5.81 2.07 5.81 6.103 0 2.144-1.56 3.757-4.087 3.757-2.62 0-3.757-1.76-4.142-2.896l1.722-.806z"/><path fill="#FFF" d="M75.03 6.612L73.745 7.95c-.495-.495-1.612-1.448-3.537-1.448-2.73 0-4.51 2.052-4.51 4.747 0 2.857 1.925 4.782 4.51 4.782 1.96 0 3.078-.806 3.408-1.154v-2.163h-2.64v-1.74h4.564v4.892c-1.375 1.283-3.006 2.053-5.443 2.053-3.648 0-6.525-2.676-6.525-6.652 0-3.72 2.73-6.652 6.56-6.652 2.713 0 4.234 1.263 4.894 1.996z"/><path fill="#FFF" d="M83.77 4.615c3.83 0 6.596 2.914 6.596 6.652 0 3.775-2.767 6.652-6.616 6.652-3.83 0-6.597-2.86-6.597-6.653 0-3.757 2.786-6.652 6.616-6.652zm0 11.4c2.564 0 4.49-2 4.49-4.748 0-2.712-1.925-4.747-4.49-4.747-2.585 0-4.49 2.034-4.49 4.747 0 2.75 1.905 4.747 4.49 4.747z"/><path fill="#057ACD" d="M93.243 14.218c.348.916 1.1 1.814 2.51 1.814 1.155 0 1.925-.64 1.925-1.723 0-2.713-5.772-2.108-5.772-6.23 0-2 1.484-3.465 3.85-3.465 2.436 0 3.48 1.723 3.792 2.62l-1.686.752c-.293-.623-.88-1.503-2.144-1.503-1.136 0-1.778.697-1.778 1.576 0 2.53 5.81 2.07 5.81 6.103 0 2.144-1.56 3.757-4.087 3.757-2.62 0-3.757-1.76-4.142-2.896l1.723-.806z"/><path fill="#057ACD" d="M104.018 6.686h-3.225V4.853h8.485v1.833h-3.226v10.996h-2.034V6.686z"/><path fill="#057ACD" d="M112.264 13.943l-1.338 3.738h-2.053l4.673-12.827h2.107l4.673 12.828h-2.052l-1.32-3.737h-4.69zm2.345-6.89l-1.78 5.185h3.556l-1.777-5.186z"/><path fill="#057ACD" d="M121.866 4.853h2.034v5.92l4.728-5.92h2.29l-5.002 6.194 5.187 6.634h-2.346l-4.857-6.34v6.34h-2.034V4.854z"/><path fill="#057ACD" d="M132.677 4.853h6.34v1.833h-4.306v3.574h3.74v1.814h-3.74v3.775h4.49v1.832h-6.523V4.852z"/><path fill="#057ACD" d="M142.334 14.218c.348.916 1.1 1.814 2.51 1.814 1.155 0 1.925-.64 1.925-1.723 0-2.713-5.773-2.108-5.773-6.23 0-2 1.484-3.465 3.85-3.465 2.436 0 3.48 1.723 3.792 2.62l-1.687.752c-.293-.623-.88-1.503-2.144-1.503-1.137 0-1.78.697-1.78 1.576 0 2.53 5.81 2.07 5.81 6.103 0 2.144-1.558 3.757-4.086 3.757-2.62 0-3.757-1.76-4.142-2.896l1.722-.806z"/></svg>