<svg id="Layer_1" data-name="Layer 1" xmlns="http://www.w3.org/2000/svg" viewBox="0 0 150 23.02"><defs><style>.cls-1,.cls-4{fill:#fff;}.cls-2{fill:#057acd;}.cls-3{fill:none;}.cls-4{stroke:#fff;stroke-miterlimit:10;stroke-width:0.75px;}</style></defs><title>VersionsArtboard 1</title><path class="cls-1" d="M25.71,14.15A8.84,8.84,0,1,1,12.82,6.29a4.78,4.78,0,0,1,.77,2.57s0,.09,0,.13A6.12,6.12,0,1,0,19,8.42a10.16,10.16,0,0,0-.57-3,8.83,8.83,0,0,1,7.28,8.7Z"/><path class="cls-2" d="M17.68,8.86a8.87,8.87,0,0,1-4.79,7.86,4.73,4.73,0,0,1-.77-2.57s0-.09,0-.13A6.12,6.12,0,0,0,9.62,2.79a6.71,6.71,0,0,0-.78-.06A6.13,6.13,0,0,0,6.7,14.6a10,10,0,0,0,.58,3A8.86,8.86,0,0,1,8.84,0,8.35,8.35,0,0,1,10,.08,8.86,8.86,0,0,1,17.68,8.86Z"/><path class="cls-3" d="M41.66,4.43H149.88V19.62H41.66Z"/><path class="cls-2" d="M43.38,14.54a2.59,2.59,0,0,0,2.51,1.81,1.7,1.7,0,0,0,1.93-1.72c0-2.71-5.77-2.11-5.77-6.23,0-2,1.48-3.47,3.85-3.47a3.89,3.89,0,0,1,3.79,2.62L48,8.31a2.31,2.31,0,0,0-2.14-1.5,1.59,1.59,0,0,0-1.78,1.58c0,2.53,5.81,2.07,5.81,6.1,0,2.14-1.56,3.76-4.09,3.76a4.17,4.17,0,0,1-4.14-2.9l1.72-.81Z"/><path class="cls-2" d="M54.15,7H50.93V5.18h8.49V7H56.19V18h-2Z"/><path class="cls-2" d="M62.4,14.27,61.06,18H59L63.68,5.18h2.11L70.46,18H68.41l-1.32-3.74H62.4Zm2.35-6.89L63,12.56h3.56L64.74,7.38Z"/><path class="cls-2" d="M72,5.18h2V11.1l4.73-5.92h2.29l-5,6.19L81.24,18H78.89L74,11.67V18H72V5.18Z"/><path class="cls-2" d="M82.81,5.18h6.34V7H84.85v3.57h3.74V12.4H84.85v3.78h4.49V18H82.82V5.18Z"/><path class="cls-2" d="M92.47,14.54A2.59,2.59,0,0,0,95,16.36a1.7,1.7,0,0,0,1.93-1.72c0-2.71-5.77-2.11-5.77-6.23,0-2,1.48-3.47,3.85-3.47a3.89,3.89,0,0,1,3.79,2.62l-1.69.75a2.31,2.31,0,0,0-2.14-1.5,1.59,1.59,0,0,0-1.78,1.58c0,2.53,5.81,2.07,5.81,6.1,0,2.14-1.56,3.76-4.09,3.76a4.17,4.17,0,0,1-4.14-2.9l1.72-.81Z"/><path class="cls-4" d="M106.6,5.18h3.54c2.44,0,3.81,1.25,3.81,3.28a3.1,3.1,0,0,1-1.65,2.82,3.11,3.11,0,0,1,2.09,3.08A3.55,3.55,0,0,1,110.52,18H106.6Zm3.7,5.55a2,2,0,0,0,2.13-2.16A1.92,1.92,0,0,0,110.3,6.5h-2.22v4.23Zm0,6c1.52,0,2.58-.73,2.58-2.38S111.73,12,110.24,12h-2.16v4.73Z"/><path class="cls-4" d="M116.56,5.18h6.08V6.54H118v4.27h4v1.34h-4v4.53h4.8V18h-6.29Z"/><path class="cls-4" d="M127.65,6.54h-3.46V5.18h8.39V6.54h-3.45V18h-1.48Z"/><path class="cls-4" d="M135.33,13.85,133.79,18h-1.5l4.8-12.83h1.5L143.39,18h-1.5l-1.54-4.16Zm2.51-7-2.05,5.75h4.12Z"/><path class="cls-4" d="M102.39,7.09a1,1,0,0,1,1,1,1,1,0,0,1-1,1,1.06,1.06,0,0,1-1-1A1,1,0,0,1,102.39,7.09Zm0,7.11a1,1,0,1,1,0,2.05,1,1,0,1,1,0-2.05Z"/></svg>